<svg width="1229" height="1229" viewBox="0 0 1229 1229" fill="none" xmlns="http://www.w3.org/2000/svg">
<path d="M1146 922L824 1192H404L82 922H1146Z" fill="#5C5FCF" fill-opacity="0.6"/>
<path d="M1218.5 508.5L1146 922L824 1192L403.999 1192L1218.5 508.5Z" fill="#5C5FCF" fill-opacity="0.6"/>
<path d="M613.672 0.640452L1008.5 144.5L1218.5 508.5L1146 922.002L613.672 0.640452Z" fill="#5C5FCF" fill-opacity="0.6"/>
<path d="M219.074 144.866L614 0.998467L1008.5 144.499L1218.5 508.499L219.074 144.866Z" fill="#5C5FCF" fill-opacity="0.6"/>
<path d="M82 922.41L9.00151 509.001L219 145L614 1L82 922.41Z" fill="#5C5FCF" fill-opacity="0.6"/>
<path d="M403.997 1192L81.9969 921.999L8.99699 508.999L219 144.999L403.997 1192Z" fill="#5C5FCF" fill-opacity="0.6"/>
</svg>
